<svg width="187" height="82" viewBox="0 0 187 82" fill="none" xmlns="http://www.w3.org/2000/svg">
<g filter="url(#filter0_d_2005_7)">
<path d="M52 7L4 0V64.5L69 74L52 7Z" fill="#4DAB5A"/>
</g>
<path d="M32.912 55.48C29.776 55.48 26.832 54.968 24.08 53.944C21.328 52.888 18.944 51.384 16.928 49.432C16.448 48.952 16.208 48.408 16.208 47.8C16.208 47.096 16.528 46.424 17.168 45.784C17.68 45.272 18.24 45.016 18.848 45.016C19.488 45.016 20.256 45.384 21.152 46.12C22.656 47.496 24.432 48.568 26.48 49.336C28.56 50.072 30.704 50.44 32.912 50.44C35.024 50.44 36.672 50.088 37.856 49.384C39.04 48.648 39.632 47.624 39.632 46.312C39.632 44.936 38.992 43.832 37.712 43C36.432 42.136 34.256 41.368 31.184 40.696C26.352 39.64 22.832 38.248 20.624 36.52C18.448 34.792 17.36 32.568 17.36 29.848C17.36 28.12 17.936 26.584 19.088 25.24C20.24 23.864 21.84 22.808 23.888 22.072C25.968 21.304 28.336 20.92 30.992 20.92C33.968 20.92 36.608 21.416 38.912 22.408C41.248 23.368 43.024 24.728 44.24 26.488C44.656 27.16 44.864 27.736 44.864 28.216C44.832 29.016 44.432 29.704 43.664 30.28C43.248 30.568 42.768 30.712 42.224 30.712C41.232 30.712 40.416 30.328 39.776 29.56C38.848 28.44 37.6 27.56 36.032 26.92C34.496 26.28 32.816 25.96 30.992 25.96C28.72 25.96 26.944 26.312 25.664 27.016C24.416 27.688 23.792 28.632 23.792 29.848C23.792 31.064 24.4 32.072 25.616 32.872C26.864 33.64 29.008 34.376 32.048 35.08C35.408 35.88 38.112 36.792 40.16 37.816C42.208 38.808 43.696 39.992 44.624 41.368C45.584 42.744 46.064 44.392 46.064 46.312C46.064 48.136 45.52 49.752 44.432 51.16C43.344 52.536 41.808 53.608 39.824 54.376C37.84 55.112 35.536 55.48 32.912 55.48Z" fill="white"/>
<path d="M77.44 55.48C75.776 55.48 74.448 54.968 73.456 53.944C72.464 52.888 71.76 51.256 71.344 49.048L66.448 23.8C66.384 23.416 66.352 23.16 66.352 23.032C66.352 22.36 66.56 21.848 66.976 21.496C67.424 21.112 68.048 20.92 68.848 20.92C69.712 20.92 70.368 21.112 70.816 21.496C71.296 21.848 71.616 22.408 71.776 23.176L76.528 49.432C76.656 50.072 76.784 50.52 76.912 50.776C77.072 51 77.296 51.112 77.584 51.112C78.16 51.112 78.512 50.568 78.64 49.48L81.904 25.912C82.128 24.344 82.688 23.128 83.584 22.264C84.512 21.368 85.68 20.92 87.088 20.92C88.528 20.92 89.696 21.368 90.592 22.264C91.488 23.128 92.048 24.344 92.272 25.912L95.584 49.48C95.648 50.056 95.76 50.472 95.92 50.728C96.08 50.984 96.32 51.112 96.64 51.112C96.896 51.112 97.088 51 97.216 50.776C97.376 50.52 97.536 50.072 97.696 49.432L102.4 23.176C102.56 22.408 102.864 21.848 103.312 21.496C103.792 21.112 104.464 20.92 105.328 20.92C106.128 20.92 106.752 21.112 107.2 21.496C107.648 21.848 107.872 22.36 107.872 23.032C107.872 23.16 107.84 23.416 107.776 23.8L102.832 49.048C102.416 51.224 101.712 52.84 100.72 53.896C99.76 54.952 98.448 55.48 96.784 55.48C95.12 55.48 93.824 54.968 92.896 53.944C91.968 52.92 91.36 51.336 91.072 49.192L87.904 26.776C87.84 26.232 87.744 25.848 87.616 25.624C87.488 25.4 87.312 25.288 87.088 25.288C86.864 25.288 86.688 25.4 86.56 25.624C86.432 25.848 86.336 26.232 86.272 26.776L83.152 49.192C82.832 51.336 82.208 52.92 81.28 53.944C80.384 54.968 79.104 55.48 77.44 55.48ZM117.42 55.48C116.588 55.48 115.916 55.256 115.404 54.808C114.924 54.36 114.684 53.736 114.684 52.936V23.464C114.684 22.664 114.924 22.04 115.404 21.592C115.916 21.144 116.588 20.92 117.42 20.92C118.22 20.92 118.876 21.16 119.388 21.64C119.9 22.088 120.156 22.696 120.156 23.464V52.936C120.156 53.704 119.9 54.328 119.388 54.808C118.876 55.256 118.22 55.48 117.42 55.48ZM130.416 55.48C129.584 55.48 128.928 55.256 128.448 54.808C127.968 54.36 127.728 53.736 127.728 52.936V28.072C127.728 25.992 128.336 24.36 129.552 23.176C130.768 21.992 132.464 21.4 134.64 21.4H149.568C150.4 21.4 151.04 21.592 151.488 21.976C151.936 22.328 152.16 22.856 152.16 23.56C152.16 24.232 151.936 24.76 151.488 25.144C151.04 25.496 150.4 25.672 149.568 25.672H135.408C134.704 25.672 134.16 25.896 133.776 26.344C133.392 26.792 133.2 27.4 133.2 28.168V36.184H145.92C146.752 36.184 147.392 36.376 147.84 36.76C148.288 37.112 148.512 37.64 148.512 38.344C148.512 39.016 148.288 39.544 147.84 39.928C147.392 40.28 146.752 40.456 145.92 40.456H133.2V52.936C133.2 53.704 132.944 54.328 132.432 54.808C131.92 55.256 131.248 55.48 130.416 55.48ZM170.142 55.48C169.31 55.48 168.638 55.256 168.126 54.808C167.646 54.36 167.406 53.736 167.406 52.936V25.672H157.566C156.734 25.672 156.094 25.496 155.646 25.144C155.198 24.76 154.974 24.232 154.974 23.56C154.974 22.856 155.198 22.328 155.646 21.976C156.094 21.592 156.734 21.4 157.566 21.4H182.718C183.55 21.4 184.19 21.592 184.638 21.976C185.118 22.328 185.358 22.856 185.358 23.56C185.358 24.232 185.118 24.76 184.638 25.144C184.19 25.496 183.55 25.672 182.718 25.672H172.878V52.936C172.878 53.704 172.622 54.328 172.11 54.808C171.63 55.256 170.974 55.48 170.142 55.48Z" fill="white"/>
<defs>
<filter id="filter0_d_2005_7" x="0" y="0" width="73" height="82" filterUnits="userSpaceOnUse" color-interpolation-filters="sRGB">
<feFlood flood-opacity="0" result="BackgroundImageFix"/>
<feColorMatrix in="SourceAlpha" type="matrix" values="0 0 0 0 0 0 0 0 0 0 0 0 0 0 0 0 0 0 127 0" result="hardAlpha"/>
<feOffset dy="4"/>
<feGaussianBlur stdDeviation="2"/>
<feComposite in2="hardAlpha" operator="out"/>
<feColorMatrix type="matrix" values="0 0 0 0 0 0 0 0 0 0 0 0 0 0 0 0 0 0 0.25 0"/>
<feBlend mode="normal" in2="BackgroundImageFix" result="effect1_dropShadow_2005_7"/>
<feBlend mode="normal" in="SourceGraphic" in2="effect1_dropShadow_2005_7" result="shape"/>
</filter>
</defs>
</svg>
